<svg t="1755160122489" class="icon" viewBox="0 0 1024 1024" version="1.1" xmlns="http://www.w3.org/2000/svg" p-id="2722" width="200" height="200"><path d="M959 782.69V346.57c0-41.31-26.76-79.5-67.59-89.92-11.76-3-23.2-2.94-35.07-2.94H732.77v-31.66c0-10.66-0.12-20.76-2.08-31.38-4.11-22.32-18.2-41.12-35.94-54.53s-39-17-60.5-17H397.53c-13.89 0-27.79-0.43-41.3 3.67-39.23 11.9-65 48.13-65 88.8v42.14H159.32c-2.17 0-4.35 0-6.52 0.06A92.56 92.56 0 0 0 79 296c-11.92 18.18-14 38.78-14 59.71v456.56a98.54 98.54 0 0 0 9 41.1c14.65 32.66 49 51.54 84 51.54h710.39c30.75-0.35 57.35-15.42 75.13-40.11 10.52-14.61 15.4-33.47 15.46-51.3 0.02-10.27 0.02-20.5 0.02-30.81zM886.81 320.1a10.19 10.19 0 0 1-1.42-1.1c0.09-0.07 0.69 0.44 1.42 1.1zM660.59 185.5a11.17 11.17 0 0 1-1.42-1.1c0.1-0.07 0.7 0.43 1.42 1.1z m-303 5.78a10.19 10.19 0 0 1-1.1 1.42c-0.05-0.09 0.51-0.7 1.12-1.42z m-0.26 0.57l0.76-1.1c1.05-1.1 2.24-2.29 2.35-2.4 1-1 2.13-1.91 3.17-2.88a62.09 62.09 0 0 1 6.38-3.68 64.4 64.4 0 0 1 7.9-2.15c9.09-0.69 18.44-0.14 27.47-0.14H612.2c11.06 0 22.57-0.78 33.71 0.1a64.76 64.76 0 0 1 8.08 2.2 60 60 0 0 1 6 3.44c0.37 0.24 0.73 0.5 1.1 0.75 1.1 1 2.29 2.25 2.4 2.36 1 1 1.91 2.13 2.88 3.17a61.17 61.17 0 0 1 3.68 6.37 66.49 66.49 0 0 1 2.19 8.08c0.89 11.25 0.1 22.87 0.1 34.06v6.12h-304c-5.56 0-11.13-0.06-16.71-0.12v-6c0-11.19-0.79-22.81 0.11-34.06a64.4 64.4 0 0 1 2.19-8.09 62 62 0 0 1 3.42-6.03zM134.25 323c1-1 2.13-1.9 3.17-2.87a59.43 59.43 0 0 1 6.37-3.68 64.69 64.69 0 0 1 7.74-2.13c7.11-0.5 14.38-0.17 21.46-0.17H867.67c1.6 0 3.19 0.07 4.77 0.17a65 65 0 0 1 7.76 2.13 60.86 60.86 0 0 1 6 3.44c0.37 0.25 0.74 0.5 1.1 0.76 1.11 1 2.3 2.24 2.41 2.35 1 1 1.9 2.13 2.87 3.17a58.61 58.61 0 0 1 3.68 6.38 64.94 64.94 0 0 1 2.11 7.64c0.33 5.05 0.19 10.15 0.19 15.2v43.28H143.77c-6.13 0-12.25 0-18.37-0.05 0-18-0.15-35.95 0-53.92 0-1.46 0.06-2.92 0.16-4.37a65 65 0 0 1 2.13-7.79 59 59 0 0 1 3.45-6c0.24-0.37 0.5-0.74 0.75-1.1 1.05-1.19 2.24-2.38 2.36-2.44z m-2.85 2.93a10.68 10.68 0 0 1-1.11 1.42c-0.06-0.14 0.44-0.74 1.11-1.47z m5.78 512.63a10.68 10.68 0 0 1 1.42 1.11c-0.1 0.01-0.7-0.49-1.42-1.16z m582.2 6H156.31c-1.59 0-3.18-0.06-4.77-0.16a65.52 65.52 0 0 1-7.76-2.13 59 59 0 0 1-6-3.45c-0.37-0.24-0.73-0.5-1.1-0.75-1.11-1-2.29-2.24-2.4-2.36-1-1-1.91-2.13-2.88-3.17a61.17 61.17 0 0 1-3.68-6.37 63.17 63.17 0 0 1-2.1-7.65c-0.33-5.05-0.19-10.14-0.19-15.2V459h164.06v78.2c0 15.8 13.89 30.93 30.2 30.2s30.2-13.27 30.2-30.2V459h325.4v78.2c0 15.8 13.89 30.93 30.2 30.2s30.2-13.27 30.2-30.2V459h144.53c6.12 0 12.24 0.05 18.37 0.06V759c0 18.33 0.15 36.68 0 55 0 1.46-0.07 2.91-0.16 4.37a63.66 63.66 0 0 1-2.14 7.79 60.86 60.86 0 0 1-3.44 6c-0.25 0.37-0.5 0.74-0.76 1.1-1.05 1.11-2.24 2.29-2.35 2.4-1 1-2.13 1.91-3.17 2.88a60.3 60.3 0 0 1-6.38 3.68 63.66 63.66 0 0 1-7.79 2.14c-1.34 0.08-2.67 0.14-4 0.15h-149z m173.2-11.78a11.56 11.56 0 0 1 1.11-1.42c0.07 0.05-0.44 0.64-1.11 1.37z" p-id="2723"></path></svg>