<svg t="1755161257348" class="icon" viewBox="0 0 1024 1024" version="1.1" xmlns="http://www.w3.org/2000/svg" p-id="1506" width="200" height="200"><path d="M412.629333 505.749333l-197.546666 197.546667a74.666667 74.666667 0 1 0 105.6 105.6l193.92-193.92 45.226666 45.269333-193.898666 193.898667a138.666667 138.666667 0 1 1-196.096-196.096l197.546666-197.546667 45.248 45.248z" p-id="1507"></path><path d="M629.333333 181.333333c-117.824 0-213.333333 95.509333-213.333333 213.333334 0 26.154667 4.693333 51.136 13.248 74.197333a32 32 0 0 1-60.010667 22.272A276.842667 276.842667 0 0 1 352 394.666667c0-153.173333 124.16-277.333333 277.333333-277.333334 46.165333 0 89.792 11.306667 128.149334 31.317334a32 32 0 0 1 7.829333 50.986666L640 324.970667V384h67.925333l0.234667-0.256 117.034667-122.005333a32 32 0 0 1 51.626666 7.68A276.288 276.288 0 0 1 906.666667 394.666667c0 153.173333-124.16 277.333333-277.333334 277.333333-33.856 0-66.368-6.08-96.469333-17.237333a32 32 0 1 1 22.272-60.010667 212.8 212.8 0 0 0 74.197333 13.248c117.824 0 213.333333-95.509333 213.333334-213.333333 0-17.962667-2.218667-35.413333-6.4-52.032l-81.813334 85.290666a64 64 0 0 1-46.528 20.074667H640a64 64 0 0 1-64-64v-59.050667a64 64 0 0 1 18.752-45.226666l90.88-90.88A213.632 213.632 0 0 0 629.333333 181.333333z" p-id="1508"></path></svg>