<svg t="1755228770667" class="icon" viewBox="0 0 1024 1024" version="1.1" xmlns="http://www.w3.org/2000/svg" p-id="8245" width="200" height="200"><path d="M364.9408 793.6H140.8a12.8 12.8 0 0 1-12.8-12.8V556.6592c0-3.392 1.344-6.656 3.7504-9.0496l504.32-504.3328a60.3776 60.3776 0 0 1 85.3376 0l156.9024 156.9024a60.416 60.416 0 0 1 0 85.3376L642.9696 520.8704l-18.0992-18.0992 235.3536-235.3536a34.7776 34.7776 0 0 0 0-49.1392L703.3216 61.376a34.7904 34.7904 0 0 0-49.1392 0L153.6 561.9584V768h206.0416l197.9776-197.9776 18.0992 18.0992-201.728 201.728a12.7616 12.7616 0 0 1-9.0496 3.7504z" fill="" p-id="8246"></path><path d="M602.4576 525.184l18.0992 18.0992-22.4 22.4128-18.112-18.0992zM364.9408 793.6a12.7616 12.7616 0 0 1-9.0496-3.7504L131.7504 565.7088a12.7872 12.7872 0 1 1 18.0992-18.0992l224.1408 224.1408A12.7872 12.7872 0 0 1 364.9408 793.6zM813.2352 345.3056a12.7616 12.7616 0 0 1-9.0496-3.7504L580.0448 117.4144a12.7872 12.7872 0 1 1 18.0992-18.0992L822.2848 323.456a12.7872 12.7872 0 0 1-9.0496 21.8496zM768.4096 390.1312a12.7616 12.7616 0 0 1-9.0496-3.7504L535.2064 162.24a12.7872 12.7872 0 1 1 18.0992-18.0992l224.1408 224.1408a12.7872 12.7872 0 0 1-9.0368 21.8496zM149.8624 659.6736l112.0768 112.0768-18.0992 18.0992-112.0768-112.0768zM333.4784 480.3584l18.0992 18.0992-22.4 22.4128-18.112-18.0992z" fill="" p-id="8247"></path><path d="M297.7024 731.6608l-107.7632-107.7632 98.7136-98.7136 18.0992 18.0992-80.6144 80.6144 71.5648 71.5648 385.3568-385.3696-71.552-71.552-237.5168 237.504-18.0992-18.0992 255.616-255.6032 107.7504 107.7504z" fill="" p-id="8248"></path></svg>